<svg xmlns="http://www.w3.org/2000/svg" viewBox="0 0 512 512" style="enable-background:new 0 0 512 512" xml:space="preserve"><path style="fill:#aff2d8" d="M503.713 256c0 136.92-110.951 247.916-247.814 247.916S8.084 392.92 8.084 256 119.034 8.084 255.899 8.084 503.713 119.08 503.713 256z"/><path style="fill:#a1e2cd" d="M503.916 256c0 136.92-110.95 247.916-247.814 247.916a248.7 248.7 0 0 1-51.012-5.27c134.952-2.214 243.674-112.328 243.674-247.863 0-119.425-84.412-219.117-196.802-242.646 1.379-.023 2.756-.053 4.14-.053 136.864 0 247.814 110.995 247.814 247.916z"/><path style="fill:#8ec155" d="M503.713 256c0 66.447-26.132 126.785-68.674 171.297L251.764 251.586a21.559 21.559 0 0 1-6.639-15.565V193.46c0-1.42-.14-2.836-.418-4.227l-8.094-40.488a21.564 21.564 0 0 1 5.893-19.471l17.857-17.865a21.546 21.546 0 0 1 15.237-6.313h31.629a21.547 21.547 0 0 0 19.274-11.917l9.637-19.282a21.547 21.547 0 0 1 19.274-11.917h54.746c57.006 45.42 93.553 115.446 93.553 194.02zm-381.914 64.674h26.355c11.901 0 21.549-9.651 21.549-21.558v-8.234a21.557 21.557 0 0 0-11.912-19.282l-19.274-9.641a21.558 21.558 0 0 1-11.912-19.282v-16.879c0-1.42.14-2.836.418-4.227l8.606-43.046a21.565 21.565 0 0 0-3.2-16.186l-10.201-15.307a21.549 21.549 0 0 0-17.93-9.6H88.593a21.54 21.54 0 0 0-9.636 2.275l-12.45 6.227a21.537 21.537 0 0 1-9.636 2.275H32.674C16.92 180.804 8.084 217.369 8.084 256c0 40.385 9.659 78.512 26.782 112.203a21.795 21.795 0 0 0 5.854-2.446l69.991-42.012a21.55 21.55 0 0 1 11.088-3.071zm107.002 125.265-14.233-3.559a21.554 21.554 0 0 1-15.679-15.686l-2.925-11.705c-2.679-10.717-13.022-17.674-23.953-16.112l-54.667 7.813c-1.01.144-2.028.217-3.047.217H59.289c40.506 52.738 101.722 88.724 171.491 95.75 8.354-2.969 14.346-10.922 14.346-20.298v-15.504c-.002-9.894-6.731-18.516-16.325-20.916z"/><path style="fill:#84ab4f" d="M503.713 256c0 66.447-26.132 126.785-68.674 171.298l-32.994-31.632c29.39-40.754 46.717-90.791 46.717-144.883 0-75.626-33.859-143.331-87.226-188.804h48.623C467.166 107.4 503.713 177.426 503.713 256z"/><path style="fill:#ff98b1" d="m472.88 418.567-17.804.639 14.028 10.986c16.774 13.136 16.316 38.681-.918 51.208l-22.531 16.376c-17.233 12.526-41.661 5.068-48.964-14.95l-6.11-16.742-6.109 16.742c-7.305 20.019-31.731 27.477-48.964 14.95L312.975 481.4c-17.233-12.526-17.691-38.071-.918-51.208l14.028-10.986-17.804-.639c-21.288-.764-35.927-21.7-29.345-41.968l8.606-26.498c6.583-20.268 30.726-28.598 48.397-16.698l14.779 9.952-4.894-17.136c-5.852-20.491 9.527-40.888 30.829-40.888h27.851c21.302 0 36.682 20.397 30.829 40.888l-4.895 17.136 14.779-9.952c17.671-11.9 41.815-3.57 48.397 16.698l8.606 26.498c6.586 20.268-8.052 41.204-29.34 41.968z"/><path style="fill:#ff728d" d="m472.88 418.567-17.804.639 14.028 10.986c16.774 13.136 16.316 38.681-.917 51.208l-22.531 16.376c-17.233 12.526-41.661 5.068-48.964-14.95l-6.109-16.742-6.11 16.742c-7.305 20.019-31.731 27.477-48.964 14.95L312.976 481.4a32.181 32.181 0 0 1-6.475-6.26c56.346-26.64 101.036-73.899 124.342-132.053l14.378-9.683c17.671-11.9 41.815-3.57 48.397 16.698l8.606 26.498c6.582 20.267-8.056 41.203-29.344 41.967z"/><path style="fill:#ffc4bc" d="M455.151 398.241c0 35.676-28.909 64.597-64.57 64.597s-64.57-28.921-64.57-64.597 28.909-64.597 64.57-64.597 64.57 28.922 64.57 64.597z"/><path style="fill:#fff2d8" d="M422.828 398.241c0 17.817-14.437 32.26-32.247 32.26-17.809 0-32.247-14.444-32.247-32.26 0-17.817 14.437-32.26 32.247-32.26 17.809.001 32.247 14.444 32.247 32.26z"/><path d="M390.674 438.573c22.237 0 40.329-18.098 40.329-40.344s-18.092-40.343-40.329-40.343c-22.238 0-40.33 18.098-40.33 40.343 0 22.245 18.092 40.344 40.33 40.344zm0-64.52c13.323 0 24.162 10.845 24.162 24.175 0 13.331-10.838 24.176-24.162 24.176-13.323 0-24.163-10.845-24.163-24.176.001-13.329 10.841-24.175 24.163-24.175zm-103.952 5.032c-3.053 9.399-.102 19.571 7.516 25.911a8.084 8.084 0 0 1-10.342 12.427c-12.732-10.597-17.658-27.606-12.55-43.332l8.606-26.498c3.928-12.097 13.077-21.413 25.098-25.558 12.016-4.143 24.958-2.448 35.503 4.653l14.779 9.95a8.083 8.083 0 0 1 2.191 11.221 8.082 8.082 0 0 1-11.221 2.191l-14.78-9.952c-6.3-4.24-14.026-5.251-21.202-2.779-7.18 2.476-12.644 8.041-14.991 15.267l-8.607 26.499zm206.273-195.862a8.083 8.083 0 0 1 9.916 5.69c5.891 21.761 8.878 44.329 8.878 67.078 0 18.991-2.089 37.933-6.211 56.302a8.087 8.087 0 0 1-7.88 6.316 8.085 8.085 0 0 1-7.895-9.856c3.861-17.209 5.819-34.962 5.819-52.763 0-21.324-2.798-42.47-8.316-62.854a8.079 8.079 0 0 1 5.689-9.913zM126.412 44.421a8.084 8.084 0 0 1 3.022-11.026C167.78 11.549 211.509 0 255.894 0c102.982 0 195.499 61.292 235.698 156.149a8.085 8.085 0 0 1-4.288 10.598c-4.107 1.745-8.856-.177-10.598-4.288-15.598-36.808-39.608-68.224-69.237-92.397h-52.061a13.39 13.39 0 0 0-12.043 7.447l-9.636 19.28c-5.052 10.108-15.209 16.387-26.505 16.387h-31.627a13.375 13.375 0 0 0-9.521 3.945l-17.855 17.863a13.454 13.454 0 0 0-3.684 12.174l8.095 40.485a29.73 29.73 0 0 1 .575 5.813v42.56c0 3.655 1.512 7.199 4.15 9.728l47.231 45.28a8.084 8.084 0 0 1-5.596 13.92 8.054 8.054 0 0 1-5.593-2.249l-47.231-45.28c-5.801-5.562-9.129-13.362-9.129-21.399v-42.56c0-.886-.088-1.776-.262-2.646l-8.094-40.482a29.59 29.59 0 0 1 8.103-26.772l17.856-17.864c5.598-5.6 13.039-8.682 20.955-8.682h31.626a13.39 13.39 0 0 0 12.043-7.447l9.636-19.28c5.052-10.108 15.209-16.387 26.505-16.387h29.732C347.375 29.737 302.797 16.17 255.894 16.17c-41.583 0-82.545 10.815-118.455 31.275a8.09 8.09 0 0 1-11.027-3.024zm361.92 401.031c4.092 16.073-1.913 32.743-15.301 42.472L450.5 504.3c-6.982 5.076-15.159 7.701-23.495 7.701-3.94 0-7.915-.586-11.818-1.776-12.162-3.711-21.638-12.693-25.999-24.642l-6.108-16.743a8.083 8.083 0 0 1 4.824-10.365c4.191-1.531 8.834.63 10.365 4.824l6.108 16.742c2.604 7.138 8.264 12.503 15.529 14.72 7.263 2.217 14.946.926 21.088-3.538l22.531-16.376c8-5.814 11.586-15.786 9.136-25.405a8.085 8.085 0 0 1 5.84-9.829c4.33-1.097 8.729 1.511 9.831 5.839zm16.382-35.926c-7.288 10.417-18.751 16.652-31.453 17.108l-17.804.639a8.083 8.083 0 0 1-8.367-7.789 8.084 8.084 0 0 1 7.789-8.368l17.804-.639c7.585-.273 14.431-3.997 18.783-10.217 4.356-6.227 5.508-13.944 3.161-21.173l-8.606-26.498c-2.955-9.096-11.034-15.566-20.583-16.483a8.085 8.085 0 0 1 1.544-16.094c15.961 1.533 29.471 12.359 34.415 27.583l8.606 26.498c3.931 12.096 2.002 25.012-5.289 35.433zm-74.176-58.095a8.084 8.084 0 0 1-7.777-10.306l4.895-17.136c2.087-7.308.66-14.978-3.917-21.045-4.572-6.061-11.549-9.537-19.139-9.537h-27.85c-10.227 0-19.349 6.516-22.699 16.215a8.08 8.08 0 0 1-10.281 5 8.084 8.084 0 0 1-5.001-10.281c5.6-16.212 20.864-27.103 37.982-27.103h27.85c12.709 0 24.39 5.82 32.046 15.968 7.659 10.154 10.049 22.99 6.557 35.222l-4.895 17.136a8.091 8.091 0 0 1-7.771 5.867zM295.277 492.597c-14.859 2.457-30.196 3.516-45.295 3.149a29.5 29.5 0 0 0 3.221-13.401v-15.503a29.595 29.595 0 0 0-22.444-28.756l-14.234-3.561a13.44 13.44 0 0 1-9.797-9.801l-2.925-11.705a29.554 29.554 0 0 0-32.94-22.155l-54.665 7.813c-.628.091-1.269.136-1.904.136H63.421a240.24 240.24 0 0 1-17.324-26.861l68.772-41.28a13.469 13.469 0 0 1 6.929-1.92h26.355c16.34 0 29.632-13.297 29.632-29.641v-8.234c0-11.298-6.276-21.458-16.379-26.511l-19.275-9.641a13.4 13.4 0 0 1-7.444-12.051v-16.879c0-.886.088-1.774.262-2.643l8.605-43.044c1.552-7.763-.011-15.666-4.401-22.254l-10.2-15.305a29.57 29.57 0 0 0-24.658-13.202H88.592a29.776 29.776 0 0 0-13.255 3.13l-12.449 6.226a13.526 13.526 0 0 1-6.021 1.422H45.765c16.033-29.043 38.242-54.814 65.787-75.628a8.083 8.083 0 0 0 1.576-11.323 8.081 8.081 0 0 0-11.323-1.576c-30.929 23.37-56.547 53.938-74.088 88.4C9.326 176.135 0 215.161 0 255.993c0 68.377 26.618 132.662 74.948 181.012 48.333 48.351 112.594 74.979 180.946 74.979 14.09 0 28.228-1.155 42.022-3.436a8.085 8.085 0 0 0 6.657-9.295c-.731-4.404-4.892-7.38-9.296-6.656zM16.168 255.993c0-35.132 7.45-68.959 21.465-99.702h19.235c4.578 0 9.161-1.082 13.255-3.129l12.449-6.227a13.526 13.526 0 0 1 6.021-1.422h15.703c4.511 0 8.7 2.242 11.201 5.998l10.201 15.306a13.388 13.388 0 0 1 2.001 10.117l-8.604 43.041a29.63 29.63 0 0 0-.577 5.815v16.879c0 11.3 6.277 21.459 16.38 26.512l19.274 9.641a13.399 13.399 0 0 1 7.444 12.05v8.234c0 7.429-6.039 13.474-13.464 13.474h-26.355a29.636 29.636 0 0 0-15.248 4.224l-67.827 40.712c-14.465-30.845-22.554-65.26-22.554-101.523zm220.868 226.35c0 5.128-2.939 9.78-7.461 12.038-60.64-6.653-114.549-36.031-153.016-79.404h37.737c1.398 0 2.807-.1 4.192-.298l54.664-7.813a13.432 13.432 0 0 1 14.967 10.069l2.925 11.704a29.58 29.58 0 0 0 21.56 21.568l14.234 3.561a13.452 13.452 0 0 1 10.199 13.072v15.503h-.001zm138.596 14.887a8.084 8.084 0 0 1-3.797 10.783 40.22 40.22 0 0 1-17.393 3.959 40.097 40.097 0 0 1-23.593-7.672l-22.53-16.376c-10.284-7.473-16.312-19.052-16.54-31.767-.229-12.715 5.382-24.504 15.392-32.342l14.027-10.985a8.082 8.082 0 0 1 11.349 1.38 8.083 8.083 0 0 1-1.381 11.348l-14.027 10.985c-5.98 4.685-9.331 11.728-9.194 19.325.136 7.596 3.737 14.513 9.88 18.978l22.531 16.376a23.992 23.992 0 0 0 24.495 2.211 8.082 8.082 0 0 1 10.781 3.797z"/></svg>